<svg width="80" height="80" viewBox="0 0 80 80" fill="none" xmlns="http://www.w3.org/2000/svg">
<path fill-rule="evenodd" clip-rule="evenodd" d="M40 77.5C60.7107 77.5 77.5 60.7107 77.5 40C77.5 19.2893 60.7107 2.5 40 2.5C19.2893 2.5 2.5 19.2893 2.5 40C2.5 60.7107 19.2893 77.5 40 77.5ZM40 80C62.0914 80 80 62.0914 80 40C80 17.9086 62.0914 0 40 0C17.9086 0 0 17.9086 0 40C0 62.0914 17.9086 80 40 80Z" fill="#307FE2"/>
<path fill-rule="evenodd" clip-rule="evenodd" d="M25.75 61C25.75 55.8914 29.8914 51.75 35 51.75H64C69.1086 51.75 73.25 55.8914 73.25 61V61.5C73.25 62.1904 72.6904 62.75 72 62.75C71.3096 62.75 70.75 62.1904 70.75 61.5V61C70.75 57.2721 67.7279 54.25 64 54.25H35C31.2721 54.25 28.25 57.2721 28.25 61V76C28.25 76.6904 27.6904 77.25 27 77.25C26.3096 77.25 25.75 76.6904 25.75 76V61Z" fill="#307FE2"/>
<path fill-rule="evenodd" clip-rule="evenodd" d="M36 62.75C36.6904 62.75 37.25 63.3096 37.25 64V77C37.25 77.6904 36.6904 78.25 36 78.25C35.3096 78.25 34.75 77.6904 34.75 77V64C34.75 63.3096 35.3096 62.75 36 62.75ZM64 62.75C64.6904 62.75 65.25 63.3096 65.25 64V70.5C65.25 71.1904 64.6904 71.75 64 71.75C63.3096 71.75 62.75 71.1904 62.75 70.5V64C62.75 63.3096 63.3096 62.75 64 62.75Z" fill="#307FE2"/>
<path d="M34 34C34 26.268 40.268 20 48 20C55.732 20 62 26.268 62 34V40C62 47.732 55.732 54 48 54C40.268 54 34 47.732 34 40V34Z" fill="white"/>
<path fill-rule="evenodd" clip-rule="evenodd" d="M59.5 40V34C59.5 27.6487 54.3513 22.5 48 22.5C41.6487 22.5 36.5 27.6487 36.5 34V40C36.5 46.3513 41.6487 51.5 48 51.5C54.3513 51.5 59.5 46.3513 59.5 40ZM48 20C40.268 20 34 26.268 34 34V40C34 47.732 40.268 54 48 54C55.732 54 62 47.732 62 40V34C62 26.268 55.732 20 48 20Z" fill="#307FE2"/>
<path fill-rule="evenodd" clip-rule="evenodd" d="M25.75 36C25.75 35.3096 26.3096 34.75 27 34.75L60 34.75C60.6904 34.75 61.25 35.3096 61.25 36C61.25 36.6904 60.6904 37.25 60 37.25L27 37.25C26.3096 37.25 25.75 36.6904 25.75 36Z" fill="#307FE2"/>
</svg>
