<svg width="80" height="80" viewBox="0 0 80 80" fill="none" xmlns="http://www.w3.org/2000/svg">
<path fill-rule="evenodd" clip-rule="evenodd" d="M40 77C60.4345 77 77 60.4345 77 40C77 19.5655 60.4345 3 40 3C19.5655 3 3 19.5655 3 40C3 60.4345 19.5655 77 40 77ZM40 80C62.0914 80 80 62.0914 80 40C80 17.9086 62.0914 0 40 0C17.9086 0 0 17.9086 0 40C0 62.0914 17.9086 80 40 80Z" fill="#307FE2"/>
<path d="M67.8707 53.1139C66.3802 53.1139 64.9642 53.6977 63.8959 54.7535C62.8277 55.8217 62.2315 57.2128 62.2315 58.7034C62.2315 60.1939 62.8153 61.5851 63.8959 62.6533C64.9766 63.7091 66.3802 64.2929 67.8707 64.2929C70.9263 64.2929 73.4105 61.7838 73.4105 58.7034C73.4105 55.6229 70.9263 53.1139 67.8707 53.1139ZM67.8707 61.8086C66.1566 61.8086 64.7157 60.3926 64.7157 58.7034C64.7157 57.0141 66.1566 55.5981 67.8707 55.5981C69.56 55.5981 70.9263 56.9893 70.9263 58.7034C70.9263 60.4175 69.56 61.8086 67.8707 61.8086ZM69.3115 34.4946C69.088 34.2835 68.7899 34.1717 68.4793 34.1717H62.1073C61.4242 34.1717 60.8652 34.7307 60.8652 35.4138V45.5991C60.8652 46.2823 61.4242 46.8412 62.1073 46.8412H72.2181C72.9012 46.8412 73.4602 46.2823 73.4602 45.5991V38.7799C73.4602 38.4321 73.3111 38.0968 73.0503 37.8608L69.3115 34.4946ZM70.976 44.357H63.3494V36.6435H67.9949L70.976 39.3265V44.357ZM37.5384 53.1139C36.0479 53.1139 34.6318 53.6977 33.5636 54.7535C32.4954 55.8217 31.8992 57.2128 31.8992 58.7034C31.8992 60.1939 32.483 61.5851 33.5636 62.6533C34.6443 63.7091 36.0479 64.2929 37.5384 64.2929C40.594 64.2929 43.0782 61.7838 43.0782 58.7034C43.0782 55.6229 40.594 53.1139 37.5384 53.1139ZM37.5384 61.8086C35.8243 61.8086 34.3834 60.3926 34.3834 58.7034C34.3834 57.0141 35.8243 55.5981 37.5384 55.5981C39.2277 55.5981 40.594 56.9893 40.594 58.7034C40.594 60.4175 39.2277 61.8086 37.5384 61.8086ZM29.2535 54.6417H26.7569V51.3377C26.7569 50.6545 26.1979 50.0955 25.5148 50.0955C24.8316 50.0955 24.2727 50.6545 24.2727 51.3377V55.8838C24.2727 56.5669 24.8316 57.1259 25.5148 57.1259H29.2535C29.9367 57.1259 30.4956 56.5669 30.4956 55.8838C30.4956 55.2006 29.9367 54.6417 29.2535 54.6417ZM35.551 47.8722C35.551 47.189 34.9921 46.6301 34.3089 46.6301H19.2421C18.5589 46.6301 18 47.189 18 47.8722C18 48.5553 18.5589 49.1143 19.2421 49.1143H34.3089C34.9921 49.1143 35.551 48.5677 35.551 47.8722ZM21.7636 43.3882L36.8304 43.4751C37.5135 43.4751 38.0725 42.9286 38.0849 42.2454C38.0973 41.5498 37.5384 40.9909 36.8552 40.9909L21.7884 40.9039C21.776 40.9039 21.776 40.9039 21.776 40.9039C21.0929 40.9039 20.5339 41.4505 20.5339 42.1336C20.5215 42.8292 21.0804 43.3882 21.7636 43.3882ZM24.2975 37.749H39.3643C40.0474 37.749 40.6064 37.19 40.6064 36.5069C40.6064 35.8237 40.0474 35.2648 39.3643 35.2648H24.2975C23.6143 35.2648 23.0554 35.8237 23.0554 36.5069C23.0554 37.19 23.6143 37.749 24.2975 37.749ZM78.5404 36.0721L69.6469 28.7064C69.4233 28.5201 69.1501 28.4207 68.852 28.4207H58.3934V23.9491C58.3934 23.266 57.8345 22.707 57.1513 22.707H25.5148C24.8316 22.707 24.2727 23.266 24.2727 23.9491V33.0414C24.2727 33.7245 24.8316 34.2835 25.5148 34.2835C26.1979 34.2835 26.7569 33.7245 26.7569 33.0414V25.1912H55.9216V54.6417H45.7363C45.0531 54.6417 44.4942 55.2006 44.4942 55.8838C44.4942 56.5669 45.0531 57.1259 45.7363 57.1259H60.9025C61.5856 57.1259 62.1446 56.5669 62.1446 55.8838C62.1446 55.2006 61.5856 54.6417 60.9025 54.6417H58.4058V30.905H68.4172L77 38L79 37.041C78.9876 36.6683 78.8261 36.3081 78.5404 36.0721Z" fill="#307FE2"/>
</svg>
