<svg width="80" height="80" viewBox="0 0 80 80" fill="none" xmlns="http://www.w3.org/2000/svg">
<path fill-rule="evenodd" clip-rule="evenodd" d="M40 77.5C60.7107 77.5 77.5 60.7107 77.5 40C77.5 19.2893 60.7107 2.5 40 2.5C19.2893 2.5 2.5 19.2893 2.5 40C2.5 60.7107 19.2893 77.5 40 77.5ZM40 80C62.0914 80 80 62.0914 80 40C80 17.9086 62.0914 0 40 0C17.9086 0 0 17.9086 0 40C0 62.0914 17.9086 80 40 80Z" fill="#307FE2"/>
<path d="M24 34.3745C24 31.6131 26.2386 29.3745 29 29.3745H49.6224C52.3838 29.3745 54.6224 31.6131 54.6224 34.3745V59.25C54.6224 62.0114 52.3838 64.25 49.6224 64.25H29C26.2386 64.25 24 62.0114 24 59.25V34.3745Z" fill="white"/>
<path fill-rule="evenodd" clip-rule="evenodd" d="M49.6224 31.8745H29C27.6193 31.8745 26.5 32.9938 26.5 34.3745V59.25C26.5 60.6307 27.6193 61.75 29 61.75H49.6224C51.0031 61.75 52.1224 60.6307 52.1224 59.25V34.3745C52.1224 32.9938 51.0031 31.8745 49.6224 31.8745ZM29 29.3745C26.2386 29.3745 24 31.6131 24 34.3745V59.25C24 62.0114 26.2386 64.25 29 64.25H49.6224C52.3838 64.25 54.6224 62.0114 54.6224 59.25V34.3745C54.6224 31.6131 52.3838 29.3745 49.6224 29.3745H29Z" fill="#307FE2"/>
<path d="M32.5062 25.972L39.3112 33.2023L46.5415 25.972H32.5062Z" fill="white"/>
<path fill-rule="evenodd" clip-rule="evenodd" d="M31.3587 25.4763C31.5565 25.0185 32.0075 24.722 32.5062 24.722H46.5415C47.047 24.722 47.5028 25.0266 47.6963 25.4937C47.8898 25.9608 47.7828 26.4984 47.4253 26.8559L40.1951 34.0862C39.956 34.3253 39.6303 34.4573 39.2922 34.4522C38.9542 34.4471 38.6326 34.3052 38.4009 34.059L31.5959 26.8288C31.2542 26.4656 31.1609 25.934 31.3587 25.4763ZM35.3992 27.222L39.3384 31.4074L43.5237 27.222H35.3992Z" fill="#307FE2"/>
<path d="M29.2729 27.6486L30.5516 26.4977C31.3891 25.7439 32.6837 25.8305 33.4134 26.689L38.0521 32.1462C38.7532 32.9711 38.6708 34.204 37.8661 34.9281L36.5874 36.079C35.7499 36.8328 34.4553 36.7462 33.7256 35.8877L29.0869 30.4305C28.3858 29.6057 28.4682 28.3727 29.2729 27.6486Z" fill="white"/>
<path fill-rule="evenodd" clip-rule="evenodd" d="M32.461 27.4986C32.1873 27.1766 31.7018 27.1442 31.3878 27.4268L30.109 28.5777C29.8073 28.8493 29.7764 29.3116 30.0393 29.6209L34.678 35.0781C34.9516 35.4001 35.4371 35.4325 35.7511 35.1499L37.0299 33.999C37.3316 33.7275 37.3625 33.2651 37.0996 32.9558L32.461 27.4986ZM29.7154 25.5686C31.0763 24.3437 33.18 24.4844 34.3658 25.8794L39.0045 31.3367C40.1437 32.677 40.0098 34.6805 38.7023 35.8573L37.4236 37.0081C36.0626 38.233 33.9589 38.0924 32.7731 36.6973L28.1345 31.24C26.9952 29.8997 27.1291 27.8962 28.4366 26.7195L29.7154 25.5686Z" fill="#307FE2"/>
<path d="M49.3496 27.6486L48.0708 26.4977C47.2333 25.7439 45.9388 25.8305 45.209 26.689L40.5704 32.1462C39.8693 32.9711 39.9517 34.204 40.7563 34.9281L42.035 36.079C42.8726 36.8328 44.1671 36.7462 44.8969 35.8877L49.5355 30.4305C50.2366 29.6057 50.1542 28.3727 49.3496 27.6486Z" fill="white"/>
<path fill-rule="evenodd" clip-rule="evenodd" d="M46.1614 27.4986C46.4351 27.1766 46.9205 27.1442 47.2346 27.4268L48.5133 28.5777C48.8151 28.8493 48.846 29.3116 48.5831 29.6209L43.9444 35.0781C43.6708 35.4001 43.1853 35.4325 42.8712 35.1499L41.5925 33.999C41.2908 33.7275 41.2599 33.2651 41.5228 32.9558L46.1614 27.4986ZM48.907 25.5686C47.5461 24.3437 45.4424 24.4844 44.2566 25.8794L39.6179 31.3367C38.4786 32.677 38.6126 34.6805 39.9201 35.8573L41.1988 37.0081C42.5598 38.233 44.6634 38.0924 45.8493 36.6973L50.4879 31.24C51.6272 29.8997 51.4933 27.8962 50.1858 26.7195L48.907 25.5686Z" fill="#307FE2"/>
<path fill-rule="evenodd" clip-rule="evenodd" d="M36.5236 15.087C35.8957 15.5967 35.4575 16.3581 35.4575 17.4658H32.9575C32.9575 15.5962 33.742 14.1248 34.9482 13.1459C36.1236 12.1919 37.6384 11.75 39.0985 11.75C40.5585 11.75 42.0733 12.1919 43.2487 13.1459C44.4549 14.1248 45.2395 15.5962 45.2395 17.4658C45.2395 18.6611 45.0897 19.5955 44.7888 20.3724C44.4809 21.1675 44.0464 21.7148 43.611 22.1638C42.6035 23.2027 41.5826 23.6742 41.0864 23.9033C40.9722 23.9561 40.8857 23.996 40.8337 24.0271C40.7375 24.0845 40.7321 24.0945 40.7026 24.1716C40.6387 24.3382 40.561 24.7125 40.561 25.5467V31.9263H38.061V25.5467C38.061 24.6327 38.1357 23.8828 38.3685 23.2761C38.6356 22.5798 39.0713 22.1675 39.5527 21.8802C39.8303 21.7146 40.0643 21.6054 40.2843 21.5028C40.7598 21.2809 41.1705 21.0894 41.8163 20.4234C42.1053 20.1254 42.3087 19.854 42.4576 19.4696C42.6135 19.067 42.7395 18.461 42.7395 17.4658C42.7395 16.3581 42.3013 15.5967 41.6733 15.087C41.0146 14.5524 40.0839 14.25 39.0985 14.25C38.113 14.25 37.1823 14.5524 36.5236 15.087Z" fill="#307FE2"/>
</svg>
