<svg width="80" height="80" viewBox="0 0 80 80" fill="none" xmlns="http://www.w3.org/2000/svg">
<path fill-rule="evenodd" clip-rule="evenodd" d="M40 77.4C60.6554 77.4 77.4 60.6554 77.4 40C77.4 19.3446 60.6554 2.6 40 2.6C19.3446 2.6 2.6 19.3446 2.6 40C2.6 60.6554 19.3446 77.4 40 77.4ZM40 80C62.0914 80 80 62.0914 80 40C80 17.9086 62.0914 0 40 0C17.9086 0 0 17.9086 0 40C0 62.0914 17.9086 80 40 80Z" fill="#307FE2"/>
<path fill-rule="evenodd" clip-rule="evenodd" d="M54 30.5H25C24.1716 30.5 23.5 31.1716 23.5 32V50C23.5 50.8284 24.1716 51.5 25 51.5H54C54.8284 51.5 55.5 50.8284 55.5 50V32C55.5 31.1716 54.8284 30.5 54 30.5ZM25 28C22.7909 28 21 29.7909 21 32V50C21 52.2091 22.7909 54 25 54H54C56.2091 54 58 52.2091 58 50V32C58 29.7909 56.2091 28 54 28H25Z" fill="#307FE2"/>
<rect x="21" y="37" width="37" height="4" fill="#307FE2"/>
<path d="M67.3922 33.7675C67.3922 40.2666 62.1237 45.5351 55.6247 45.5351C49.1257 45.5351 43.8572 40.2666 43.8572 33.7675C43.8572 27.2685 49.1257 22 55.6247 22C62.1237 22 67.3922 27.2685 67.3922 33.7675Z" fill="white"/>
<path fill-rule="evenodd" clip-rule="evenodd" d="M55.6247 43.0351C60.743 43.0351 64.8922 38.8859 64.8922 33.7675C64.8922 28.6492 60.743 24.5 55.6247 24.5C50.5064 24.5 46.3572 28.6492 46.3572 33.7675C46.3572 38.8859 50.5064 43.0351 55.6247 43.0351ZM55.6247 45.5351C62.1237 45.5351 67.3922 40.2666 67.3922 33.7675C67.3922 27.2685 62.1237 22 55.6247 22C49.1257 22 43.8572 27.2685 43.8572 33.7675C43.8572 40.2666 49.1257 45.5351 55.6247 45.5351Z" fill="#307FE2"/>
<path fill-rule="evenodd" clip-rule="evenodd" d="M61.5794 29.2902C62.0302 29.7243 62.0438 30.4416 61.6097 30.8924L54.3258 38.4564L50.2758 34.2506C49.8417 33.7998 49.8552 33.0824 50.306 32.6483C50.7568 32.2142 51.4742 32.2278 51.9083 32.6786L54.3258 35.1891L59.9772 29.3204C60.4113 28.8696 61.1286 28.8561 61.5794 29.2902Z" fill="#307FE2"/>
</svg>
